<svg height="480pt" viewBox="0 -24 480 480" width="480pt" xmlns="http://www.w3.org/2000/svg"><path d="m456 0h-432c-13.25.015625-23.984375 10.75-24 24v384c.015625 13.25 10.75 23.984375 24 24h432c13.25-.015625 23.984375-10.75 24-24v-384c-.015625-13.25-10.75-23.984375-24-24zm-432 16h432c4.414062.003906 7.996094 3.585938 8 8v48h-448v-48c.003906-4.414062 3.585938-7.996094 8-8zm432 400h-432c-4.414062-.003906-7.996094-3.585938-8-8v-320h448v320c-.003906 4.414062-3.585938 7.996094-8 8zm0 0"/><path d="m32 32h24v24h-24zm0 0"/><path d="m72 32h24v24h-24zm0 0"/><path d="m112 32h24v24h-24zm0 0"/><path d="m384 128h-224c-13.25.015625-23.984375 10.75-24 24v48h-56c-13.25.015625-23.984375 10.75-24 24v128c.015625 13.25 10.75 23.984375 24 24h224c13.25-.015625 23.984375-10.75 24-24v-48h56c13.25-.015625 23.984375-10.75 24-24v-128c-.015625-13.25-10.75-23.984375-24-24zm-224 16h224c4.414062.003906 7.996094 3.585938 8 8v8h-240v-8c.003906-4.414062 3.585938-7.996094 8-8zm-8 32h240v40h-65.472656c-3.371094-9.5625-12.390625-15.96875-22.527344-16h-152zm160 176c-.003906 4.414062-3.585938 7.996094-8 8h-224c-4.414062-.003906-7.996094-3.585938-8-8v-128c.003906-4.414062 3.585938-7.996094 8-8h224c4.414062.003906 7.996094 3.585938 8 8zm72-64h-56v-56h64v48c-.003906 4.414062-3.585938 7.996094-8 8zm0 0"/><path d="m168 288v-32c-.015625-13.25-10.75-23.984375-24-24h-32c-13.25.015625-23.984375 10.75-24 24v32c.015625 13.25 10.75 23.984375 24 24h32c13.25-.015625 23.984375-10.75 24-24zm-64 0v-32c.003906-4.414062 3.585938-7.996094 8-8h32c4.414062.003906 7.996094 3.585938 8 8v32c-.003906 4.414062-3.585938 7.996094-8 8h-32c-4.414062-.003906-7.996094-3.585938-8-8zm0 0"/><path d="m280 232h16v16h-16zm0 0"/><path d="m216 232h48v16h-48zm0 0"/><path d="m184 232h16v16h-16zm0 0"/><path d="m280 264h16v16h-16zm0 0"/><path d="m216 264h48v16h-48zm0 0"/><path d="m184 264h16v16h-16zm0 0"/><path d="m280 296h16v16h-16zm0 0"/><path d="m216 296h48v16h-48zm0 0"/><path d="m184 296h16v16h-16zm0 0"/><path d="m88 328h16v16h-16zm0 0"/><path d="m280 328h16v16h-16zm0 0"/><path d="m120 328h144v16h-144zm0 0"/></svg>