<svg id="_x33_0_A_seat" enable-background="new 0 0 64 64" height="512" viewBox="0 0 64 64" width="512" xmlns="http://www.w3.org/2000/svg"><path d="m45 24v10h-3v-6h1v-1c0-.133-.029-3.142-2-5.387v-11.613c0-4.962-4.038-9-9-9-3.248 0-6.091 1.735-7.674 4.322-.524-.207-1.223-.322-2.326-.322-2.603 0-4.746 2.201-4.977 5h-1.467c-2.513 0-4.556 2.243-4.556 5 0 1.154.373 2.205.974 3.052-.09.101-.346.29-.565.45-.513.376-1.217.891-2.116 1.791-.873.873-1.154 2.58-1.246 3.707h-7.047v39h18v-5h11c.768 0 1.469-.29 2-.766.531.476 1.232.766 2 .766h11v5h18v-39zm16 2v2.111h-14v-2.111zm-21 8h-2v-2-1-3h2zm-14-2v2h-2v-6h2v3zm-9.98-8c.076-2.038.365-3.923.687-4.293.717-.717 1.609-1.146 2.472-1.56 1.044-.502 2.186-1.065 2.626-2.158.065.003.129.011.195.011h1v5.613c-1.971 2.245-2 5.254-2 5.387v1h1v6h-3v-10zm9.98 2h-2.892c.163-.911.573-2.267 1.599-3.293.197-.197.674-.483 1.293-.807zm2-5.061c.347-.156.697-.31 1.04-.457.193 1.542 1.306 2.518 2.96 2.518s2.767-.976 2.96-2.518c.343.147.693.301 1.04.457v9.061h-8zm4-4.939c-1.514 0-3-1.981-3-4 0-.936.634-1.991 1.312-2.838.748 2.193 2.661 2.454 3.798 2.609.321.044.807.11.882.135 0 0 .008.027.008.094 0 2.019-1.486 4-3 4zm0 2c.347 0 .68-.047 1-.129v2.129c0 .923-.516 1-1 1s-1-.077-1-1v-2.129c.32.082.653.129 1 .129zm7.293 4.707c1.017 1.017 1.428 2.378 1.595 3.293h-2.888v-4.1c.619.324 1.096.61 1.293.807zm-7.293-19.707c3.86 0 7 3.14 7 7v10.171c-1.337-.716-3.03-1.442-4-1.844v-1.599c1.245-1.182 2-3.013 2-4.729 0-1.853-1.704-2.085-2.62-2.21-1.433-.195-2.38-.325-2.38-2.789v-2.16l-1.647 1.397c-.343.292-3.353 2.927-3.353 5.763 0 1.716.755 3.547 2 4.729v1.599c-.97.401-2.663 1.128-4 1.844v-10.172c0-3.86 3.14-7 7-7zm-10 4c.746 0 1.17.044 1.473.143-.302.899-.473 1.858-.473 2.857v4h-1c-1.654 0-3-1.57-3-3.5s1.346-3.5 3-3.5zm-6.444 5h1.638c.392 1.516 1.36 2.764 2.628 3.443-.224.252-.682.504-1.509.901-.815.392-1.801.886-2.684 1.658l-.073-.002c-1.41 0-2.556-1.346-2.556-3s1.146-3 2.556-3zm-4.849 9.707c.791-.791 1.397-1.234 1.884-1.591.309-.226.607-.45.852-.713.34.198.699.359 1.083.457-.351 1.267-.473 2.912-.51 4.14h-3.958c.096-.946.316-1.96.649-2.293zm6.293 4.293v2.111h-14v-2.111zm0 35h-14v-30.889h14v3.889 24zm14-6c0 .551-.449 1-1 1h-11v-20h11c.551 0 1 .449 1 1zm-1-21h-2v-2h8v2h-2c-.768 0-1.469.29-2 .766-.531-.476-1.232-.766-2-.766zm4 22c-.551 0-1-.449-1-1v-18c0-.551.449-1 1-1h11v20zm13 5v-3-24-3.889h14v30.889z"/><path d="m49 48h10v-13h-10zm2-11h6v9h-6z"/><path d="m49 50h2v2h-2z"/><path d="m57 50h2v2h-2z"/><path d="m53 50h2v2h-2z"/><circle cx="54" cy="21" r="1"/><path d="m57.707 17.293c-1.94-1.94-5.474-1.94-7.414 0l1.414 1.414c1.179-1.179 3.407-1.179 4.586 0z"/><path d="m59.293 15.707 1.414-1.414c-3.51-3.511-9.904-3.511-13.414 0l1.414 1.414c2.721-2.721 7.865-2.721 10.586 0z"/></svg>